<?xml version="1.0" encoding="utf-8"?>
<!-- Generator: Adobe Illustrator 22.0.0, SVG Export Plug-In . SVG Version: 6.00 Build 0)  -->
<svg version="1.1" id="图层_1" xmlns="http://www.w3.org/2000/svg" xmlns:xlink="http://www.w3.org/1999/xlink" x="0px" y="0px"
	 viewBox="0 0 1024 1024" style="enable-background:new 0 0 1024 1024;" xml:space="preserve">
<style type="text/css">
	.st0{clip-path:url(#SVGID_2_);}
</style>
<g>
	<g>
		<defs>
			<rect id="SVGID_1_" x="102" y="136" width="819.8" height="752.9"/>
		</defs>
		<clipPath id="SVGID_2_">
			<use xlink:href="#SVGID_1_"  style="overflow:visible;"/>
		</clipPath>
		<path class="st0" d="M793.7,821c-70.5,0-127.4-56.9-127.4-127.4s56.9-127.4,127.4-127.4c70.5,0,127.4,56.9,127.4,127.4
			S864.2,821,793.7,821L793.7,821z M793.7,634.5c-31.9,0-59.2,27.3-59.2,59.2c0,31.9,27.3,59.2,59.2,59.2
			c31.9,0,59.2-27.3,59.2-59.2C852.8,659.5,825.5,634.5,793.7,634.5L793.7,634.5z M682.1,381.9l45.5-50.1
			c50.1,45.5,86.5,106.9,100.1,175.2l-66,13.7C748.1,466.1,720.8,418.3,682.1,381.9L682.1,381.9z M575.2,404.6H450
			c-38.7,0-72.8-31.9-72.8-72.8V208.9c0-38.7,31.9-72.8,72.8-72.8h125.2c38.7,0,72.8,31.9,72.8,72.8v125.2
			C645.7,372.8,613.9,404.6,575.2,404.6L575.2,404.6z M579.7,208.9c0-2.3-2.3-4.6-4.6-4.6H450c-2.3,0-4.6,2.3-4.6,4.6v125.2
			c0,2.3,2.3,4.6,4.6,4.6h125.2c2.3,0,4.6-2.3,4.6-4.6V208.9z M131.5,811.9l-29.6-52.3l106.9-184.3H268l100.1,184.3l-29.6,50.1
			H131.5V811.9z M238.4,661.8l-47.8,81.9h91L238.4,661.8z M197.5,518.4c11.4-70.5,45.5-134.3,97.8-184.3l45.5,50.1
			c-41,38.7-68.3,88.7-77.4,145.6L197.5,518.4z M513.8,818.8c45.5,0,91-11.4,129.7-36.4l34.1,59.2c-91,54.6-200.3,61.4-295.8,18.2
			l27.3-61.4C443.2,811.9,477.3,818.8,513.8,818.8L513.8,818.8z M513.8,818.8"/>
	</g>
</g>
</svg>
