<?xml version="1.0" encoding="utf-8"?>
<!-- Generator: Adobe Illustrator 22.0.0, SVG Export Plug-In . SVG Version: 6.00 Build 0)  -->
<svg version="1.1" id="图层_1" xmlns="http://www.w3.org/2000/svg" xmlns:xlink="http://www.w3.org/1999/xlink" x="0px" y="0px"
	 viewBox="0 0 1024 1024" style="enable-background:new 0 0 1024 1024;" xml:space="preserve">
<style type="text/css">
	.st0{clip-path:url(#SVGID_2_);}
</style>
<g>
	<g>
		<defs>
			<rect id="SVGID_1_" x="119" y="152" width="784.9" height="720"/>
		</defs>
		<clipPath id="SVGID_2_">
			<use xlink:href="#SVGID_1_"  style="overflow:visible;"/>
		</clipPath>
		<path class="st0" d="M891,419c-2.9-10.5-13.4-17-24-15c-157.4,31.7-261.7,94.3-309.3,185c-48.5,92.5-22.2,183.2-13.6,208.1
			c-29.3,17.5-61.9,29.1-95.7,34c-10.7,1.4-18.4,10.9-17.7,21.7c0.7,10.8,9.7,19.1,20.4,19.1h2.7c49.5-7.3,96.5-26.4,136.9-55.8
			c117-2.3,202.7-36.7,255.3-103.8C937,595.8,892.3,425.8,891,419L891,419z M813.4,687.4c-36.3,46.3-93.4,74.4-169.1,84.3
			c80.7-80.3,120.6-179.6,122.9-185.9c2.9-6.9,1.7-14.9-2.9-20.7c-4.7-5.9-12.1-8.8-19.5-7.6c-7.4,1.2-13.6,6.3-16.1,13.3
			c-0.9,1.8-50.3,125.2-149.2,202.7c-8.2-29.5-20.9-98,15-165.1c39.9-75.3,127.4-128.8,260.7-159.2
			C863.3,493.8,875.5,607.2,813.4,687.4L813.4,687.4z M472.9,799.4c8.3,0,15.8-5,19-12.7c1.4-2.7,30.4-72.6,29.5-167.8
			c-0.5-88.4-27.7-215.4-154.2-320.1L199,156.9c-5.1-4.4-12.1-6-18.6-4.1c-6.4,1.7-11.7,6.5-14.1,12.7
			c-4.5,12.7-112.5,315.2,13.2,499.3C238,750.9,336.4,796.3,472.9,799.4L472.9,799.4z M213.5,641.6c-93-136-40.8-355.1-17.7-433.5
			l145.1,122.4c91.1,75.7,137.9,172.3,139.2,287c0.2,36.2-3.9,72.3-12.2,107.5c-15-24.9-43.5-57.6-97-99.8
			C229.8,511,235.7,373.2,236.2,367.7c0.2-11.1-8.4-20.4-19.5-21c-11.1-0.6-20.7,7.7-21.7,18.8c-0.5,6.8-8.2,164.2,150.1,292.5
			c63.5,50.3,84.8,82.1,92.1,98.4C333.7,746.4,258.4,707.8,213.5,641.6L213.5,641.6z M213.5,641.6"/>
	</g>
</g>
</svg>
