<?xml version="1.0" encoding="utf-8"?>
<!-- Generator: Adobe Illustrator 22.0.0, SVG Export Plug-In . SVG Version: 6.00 Build 0)  -->
<svg version="1.1" id="图层_1" xmlns="http://www.w3.org/2000/svg" xmlns:xlink="http://www.w3.org/1999/xlink" x="0px" y="0px"
	 viewBox="0 0 1024 1024" style="enable-background:new 0 0 1024 1024;" xml:space="preserve">
<style type="text/css">
	.st0{clip-path:url(#SVGID_2_);}
</style>
<g>
	<g>
		<defs>
			<rect id="SVGID_1_" x="149" y="102" width="724.8" height="820.7"/>
		</defs>
		<clipPath id="SVGID_2_">
			<use xlink:href="#SVGID_1_"  style="overflow:visible;"/>
		</clipPath>
		<path class="st0" d="M707.4,161.1l-1.6-0.8c-11.5-7-26.2-2.9-32.8,9L659.9,193c-7,12.3-2.9,27.9,9,34.8l1.6,0.8
			c11.5,7,26.2,2.9,32.8-9l13.1-23.8C723,183.6,718.9,168.1,707.4,161.1L707.4,161.1z M338,197.5L324,173c-6.6-11.9-20.9-16-31.9-9
			l-2.5,1.2c-11.5,7-15.2,22.1-8.6,34.4l13.9,24.6c6.6,11.9,20.9,16,31.9,9l2.5-1.2C340.8,225,344.5,209.8,338,197.5L338,197.5z
			 M595.2,871.3H428.5c-11.9,0-22.5,8.2-24.6,20.5c-2.9,16,9,29.9,23.8,29.9h167.1c10.2,0,20.5-6.6,23.3-17.2
			C623,887.3,610.8,871.3,595.2,871.3L595.2,871.3z M512.5,102.5H510c-13.1,0-23.8,11.1-23.8,25v27.9c0,13.9,10.7,25,23.8,25h2.5
			c13.1,0,23.8-11.1,23.8-25v-27.9C536.2,113.6,525.6,102.5,512.5,102.5L512.5,102.5z M161,366.3l23.8,14.3c11.5,7,25.8,2.9,32.4-9
			l0.8-1.6c6.6-12.3,2.9-27.4-9-34.4l-23.8-14.3c-11.5-7-25.8-2.9-32.4,9l-0.8,1.6C145.5,343.8,149.6,359.3,161,366.3L161,366.3z
			 M493.2,229.1c-137.6,9.4-249,127.4-256.8,272.4c-6.6,117.1,53.3,220,143.4,271.6V796c0,20.9,16,37.7,36,37.7h191.3
			c19.7,0,36-16.8,36-37.7V773c85.6-49.2,143.8-144.6,143.8-254.4C786.5,352,653.4,218.4,493.2,229.1L493.2,229.1z M612.4,732.5
			h-17.2v50.4H427.7v-50.4h-17.2c-83.1-43.4-137.6-138-124.9-244.9c12.7-108.1,96.7-195,199.5-206.8c137.2-16,253.5,96.7,253.5,238
			C739,612.5,687.4,693.6,612.4,732.5L612.4,732.5z M836.9,320.8l-23.3,13.9c-11.5,7-15.6,22.5-9,34.8l0.8,1.2
			c6.6,11.9,21.3,16,32.8,9l23.3-13.9c11.5-7,15.6-22.5,9-34.8l-0.8-1.2C862.7,318,848.3,313.9,836.9,320.8L836.9,320.8z M648.9,447
			c-0.4,2,0,4.1,0.8,6.1c0.4,2.5,1.6,4.9,2.9,6.6c2.5,5.3,7.8,15.2,8.6,14.7c2.9,3.7,7.4,5.7,12.3,5.7c9.8,0,17.6-8.6,17.6-18.8
			c0-5.3-2.5-9.4-3.7-14.3c-2.5-6.6-10.7-16.8-11.5-16c-2.5-2-5.3-3.7-8.2-3.7C658.3,427.7,649.7,436.3,648.9,447L648.9,447z
			 M657,402.8c0.4-6.1-1.6-11.9-5.3-15.6c-27.9-34.8-66.8-60.2-118.4-70.4v0.4c-1.2-0.4-2.5-0.8-3.7-0.8c-9.8,0-18,8.6-18,19.3
			c0,7.4,4.5,13.1,11.1,16v0.4c45.1,8.2,77.4,30.3,101.2,59.8c0.4-0.4,8.6,9.8,15.2,10.2C647.6,422,656.2,413.4,657,402.8L657,402.8
			z M657,402.8"/>
	</g>
</g>
</svg>
