<?xml version="1.0" encoding="utf-8"?>
<!-- Generator: Adobe Illustrator 22.0.0, SVG Export Plug-In . SVG Version: 6.00 Build 0)  -->
<svg version="1.1" id="图层_1" xmlns="http://www.w3.org/2000/svg" xmlns:xlink="http://www.w3.org/1999/xlink" x="0px" y="0px"
	 viewBox="0 0 1024 1024" style="enable-background:new 0 0 1024 1024;" xml:space="preserve">
<style type="text/css">
	.st0{clip-path:url(#SVGID_2_);}
</style>
<g>
	<g>
		<defs>
			<rect id="SVGID_1_" x="118" y="162" width="786.9" height="700.8"/>
		</defs>
		<clipPath id="SVGID_2_">
			<use xlink:href="#SVGID_1_"  style="overflow:visible;"/>
		</clipPath>
		<path class="st0" d="M901.9,176.6c-1.4-2.3-6.5-9.9-18.6-12.9c-15.3-3.9-35.2,1.4-58.1,15.4L142.4,540.3
			c-5.9,2.7-24.9,12.8-24.5,30.8c0.3,12,8.8,21.4,26.2,28.4L360,670.9l10.2-30.9l-213.3-70.6l671.5-355.3L502.8,588.4
			c-6.6,7.1-64.6,70.6-70.1,113.3v160.1h32.6l-0.2-158c3-22.9,39.4-69.4,62-93.7l336.7-387l-103,530.4c-2.1,20.1-7.8,23.8-8.5,24.2
			c-1.9,1-5.5-0.3-6-0.5c-0.9-0.5-1.8-0.9-2.8-1.2l-218.1-72.3l-10.2,30.9l216.9,72c3.1,1.5,10,4.2,18.4,4.2c5.1,0,10.9-1,16.7-4
			c14.5-7.5,23.2-24.3,25.7-48.3l110.9-570.6C904.5,183.9,903.8,180,901.9,176.6L901.9,176.6z M901.9,176.6"/>
	</g>
</g>
</svg>
